<svg xmlns="http://www.w3.org/2000/svg" width="380" height="300" viewBox="0 0 380 300" role="img" aria-label="Animated ADC sampling">
  <defs><filter id="glow"><feGaussianBlur stdDeviation="2" result="b"/><feMerge><feMergeNode in="b"/><feMergeNode in="SourceGraphic"/></feMerge></filter></defs>
  <rect width="380" height="300" rx="18" fill="#020617" stroke="#0ea5e9" stroke-width="2"/>
  <text x="24" y="34" font-family="JetBrains Mono, Consolas, monospace" font-size="18" fill="#e0faff">ADC SAMPLING</text>
  <g transform="translate(28 72)" filter="url(#glow)">
    <rect width="324" height="162" rx="12" fill="#031426" stroke="#155e75"/>
    <g stroke="#0e7490" opacity=".45"><path d="M0 40h324M0 80h324M0 120h324M54 0v162M108 0v162M162 0v162M216 0v162M270 0v162"/></g>
    <path d="M0 98 C28 36 56 36 84 98 S140 160 168 98 S224 36 252 98 S308 160 336 98" fill="none" stroke="#22d3ee" stroke-width="4" stroke-linecap="round"/>
    <g stroke="#38bdf8" stroke-width="2">
      <path d="M32 0v162"><animate attributeName="x1" values="32;292;32" dur="2.6s" repeatCount="indefinite"/><animate attributeName="x2" values="32;292;32" dur="2.6s" repeatCount="indefinite"/></path>
    </g>
    <g fill="#a5f3fc">
      <circle cx="32" cy="62" r="4"><animate attributeName="opacity" values="1;.2;1" dur="1.2s" repeatCount="indefinite"/></circle>
      <circle cx="84" cy="98" r="4"><animate attributeName="opacity" values=".2;1;.2" dur="1.4s" repeatCount="indefinite"/></circle>
      <circle cx="136" cy="134" r="4"><animate attributeName="opacity" values="1;.2;1" dur="1.6s" repeatCount="indefinite"/></circle>
      <circle cx="188" cy="62" r="4"><animate attributeName="opacity" values=".2;1;.2" dur="1.8s" repeatCount="indefinite"/></circle>
      <circle cx="240" cy="98" r="4"><animate attributeName="opacity" values="1;.2;1" dur="1.5s" repeatCount="indefinite"/></circle>
      <circle cx="292" cy="134" r="4"><animate attributeName="opacity" values=".2;1;.2" dur="1.7s" repeatCount="indefinite"/></circle>
    </g>
  </g>
  <text x="28" y="252" font-family="JetBrains Mono, Consolas, monospace" font-size="12" fill="#a5f3fc">QUANTIZATION STREAM | FILTER STAGE | FPGA CAPTURE</text>
</svg>
